<svg width="41" height="40" viewBox="0 0 41 40" fill="none" xmlns="http://www.w3.org/2000/svg">
<g clip-path="url(#clip0_629_3517)">
<path d="M39.083 8.82584L20.9214 0.0581812C20.7604 -0.0194751 20.5729 -0.0194751 20.4119 0.0581812L2.2503 8.82584C2.0478 8.92357 1.91913 9.12865 1.91913 9.35349V30.6464C1.91913 30.8712 2.0478 31.0763 2.2503 31.174L20.4119 39.9417C20.4923 39.9805 20.5795 40 20.6666 40C20.7537 40 20.8408 39.9805 20.9214 39.9417L39.083 31.174C39.2855 31.0763 39.4141 30.8712 39.4141 30.6464V9.35357C39.4141 9.12857 39.2854 8.92365 39.083 8.82584ZM20.6666 1.23654L37.4805 9.35349L32.6065 11.7065C32.5756 11.6829 32.543 11.6612 32.5072 11.644L15.8076 3.58224L20.6666 1.23654ZM14.4844 4.24474L31.2737 12.3499L27.8351 14.01L11.0526 5.9081L14.4844 4.24474ZM31.6665 13.4615V19.5979L28.4546 21.1485V15.0121L31.6665 13.4615ZM38.2422 30.2787L21.2526 38.4804V18.4889L25.3051 16.5325C25.5965 16.3918 25.7187 16.0415 25.578 15.7501C25.4373 15.4587 25.0871 15.3364 24.7956 15.4772L20.6666 17.4705L19.0419 16.6861C18.7505 16.5453 18.4002 16.6676 18.2595 16.959C18.1188 17.2504 18.241 17.6008 18.5324 17.7415L20.0807 18.4889V38.4804L3.091 30.2786V10.287L16.0285 16.5327C16.1106 16.5724 16.1974 16.5912 16.2828 16.5912C16.5006 16.5912 16.7098 16.4691 16.8108 16.2598C16.9515 15.9684 16.8294 15.6181 16.538 15.4774L3.8528 9.35349L9.6735 6.54349L27.2746 15.0406C27.2772 15.0442 27.2801 15.0474 27.2827 15.0509V22.0821C27.2827 22.2837 27.3864 22.4711 27.5572 22.5784C27.652 22.6379 27.7602 22.668 27.8687 22.668C27.9556 22.668 28.0427 22.6487 28.1234 22.6097L32.5072 20.4934C32.7097 20.3957 32.8384 20.1907 32.8384 19.9658V12.8958L38.2422 10.2871V30.2787Z" fill="black"/>
<path d="M7.92649 28.0062L5.26125 26.7196C4.96969 26.5787 4.61953 26.701 4.47883 26.9924C4.33812 27.2839 4.46031 27.6342 4.75172 27.7749L7.41696 29.0615C7.49906 29.1012 7.58586 29.1199 7.67125 29.1199C7.88906 29.1199 8.09828 28.9979 8.1993 28.7886C8.34008 28.4971 8.21789 28.147 7.92649 28.0062Z" fill="black"/>
<path d="M10.3793 26.4095L5.26486 23.9404C4.97338 23.7997 4.62314 23.9219 4.48244 24.2134C4.34182 24.5048 4.464 24.8551 4.75541 24.9958L9.86986 27.4649C9.95197 27.5045 10.0388 27.5233 10.1242 27.5233C10.342 27.5233 10.5512 27.4013 10.6522 27.192C10.7929 26.9004 10.6707 26.5501 10.3793 26.4095Z" fill="black"/>
</g>
<defs>
<clipPath id="clip0_629_3517">
<rect width="40" height="40" fill="white" transform="translate(0.666626)"/>
</clipPath>
</defs>
</svg>
